<mxfile host="Electron" modified="2023-10-12T02:59:12.828Z" agent="Mozilla/5.0 (Macintosh; Intel Mac OS X 10_15_7) AppleWebKit/537.36 (KHTML, like Gecko) draw.io/21.6.8 Chrome/114.0.5735.289 Electron/25.5.0 Safari/537.36" etag="8KwkgdOLyPSqDy8JNMlK" version="21.6.8" type="device">
  <diagram name="第 1 页" id="XpeZZSSHsfJj00V_iUT9">
    <mxGraphModel dx="887" dy="674" grid="1" gridSize="10" guides="1" tooltips="1" connect="1" arrows="1" fold="1" page="1" pageScale="1" pageWidth="827" pageHeight="1169" math="0" shadow="0">
      <root>
        <mxCell id="0" />
        <mxCell id="1" parent="0" />
        <mxCell id="NuvUmpWHhTy3l0ar6KKT-1" value="接口层" style="rounded=0;whiteSpace=wrap;html=1;fillColor=#dae8fc;strokeColor=#6c8ebf;" parent="1" vertex="1">
          <mxGeometry x="90" y="260" width="70" height="190" as="geometry" />
        </mxCell>
        <mxCell id="NuvUmpWHhTy3l0ar6KKT-2" value="" style="rounded=0;whiteSpace=wrap;html=1;" parent="1" vertex="1">
          <mxGeometry x="160" y="260" width="590" height="190" as="geometry" />
        </mxCell>
        <mxCell id="NuvUmpWHhTy3l0ar6KKT-3" value="数据新增接口" style="rounded=1;whiteSpace=wrap;html=1;fillColor=#f8cecc;strokeColor=#b85450;" parent="1" vertex="1">
          <mxGeometry x="180" y="280" width="110" height="40" as="geometry" />
        </mxCell>
        <mxCell id="NuvUmpWHhTy3l0ar6KKT-4" value="数据修改接口" style="rounded=1;whiteSpace=wrap;html=1;fillColor=#f8cecc;strokeColor=#b85450;" parent="1" vertex="1">
          <mxGeometry x="304" y="280" width="110" height="40" as="geometry" />
        </mxCell>
        <mxCell id="NuvUmpWHhTy3l0ar6KKT-5" value="数据删除接口" style="rounded=1;whiteSpace=wrap;html=1;fillColor=#f8cecc;strokeColor=#b85450;" parent="1" vertex="1">
          <mxGeometry x="430" y="280" width="110" height="40" as="geometry" />
        </mxCell>
        <mxCell id="NuvUmpWHhTy3l0ar6KKT-6" value="数据查询接口" style="rounded=1;whiteSpace=wrap;html=1;fillColor=#f8cecc;strokeColor=#b85450;" parent="1" vertex="1">
          <mxGeometry x="560" y="280" width="110" height="40" as="geometry" />
        </mxCell>
        <mxCell id="NuvUmpWHhTy3l0ar6KKT-7" value="配置信息维护接口" style="rounded=1;whiteSpace=wrap;html=1;fillColor=#f8cecc;strokeColor=#b85450;" parent="1" vertex="1">
          <mxGeometry x="620" y="360" width="110" height="40" as="geometry" />
        </mxCell>
        <mxCell id="NuvUmpWHhTy3l0ar6KKT-8" value="" style="shape=curlyBracket;whiteSpace=wrap;html=1;rounded=1;labelPosition=left;verticalLabelPosition=middle;align=right;verticalAlign=middle;rotation=-90;" parent="1" vertex="1">
          <mxGeometry x="395" y="135" width="30" height="420" as="geometry" />
        </mxCell>
        <mxCell id="NuvUmpWHhTy3l0ar6KKT-9" value="&amp;nbsp; &amp;nbsp; 接口调用方式" style="rounded=1;whiteSpace=wrap;html=1;align=left;fillColor=#dae8fc;strokeColor=#6c8ebf;" parent="1" vertex="1">
          <mxGeometry x="210" y="365" width="370" height="60" as="geometry" />
        </mxCell>
        <mxCell id="NuvUmpWHhTy3l0ar6KKT-10" value="基于statementId" style="rounded=1;whiteSpace=wrap;html=1;fillColor=#fff2cc;strokeColor=#d6b656;" parent="1" vertex="1">
          <mxGeometry x="305" y="380" width="120" height="30" as="geometry" />
        </mxCell>
        <mxCell id="NuvUmpWHhTy3l0ar6KKT-11" value="基于Mapper接口" style="rounded=1;whiteSpace=wrap;html=1;fillColor=#ffe6cc;strokeColor=#d79b00;" parent="1" vertex="1">
          <mxGeometry x="430" y="380" width="120" height="30" as="geometry" />
        </mxCell>
        <mxCell id="NuvUmpWHhTy3l0ar6KKT-12" value="数据处理层" style="rounded=0;whiteSpace=wrap;html=1;fillColor=#dae8fc;strokeColor=#6c8ebf;" parent="1" vertex="1">
          <mxGeometry x="90" y="450" width="70" height="190" as="geometry" />
        </mxCell>
        <mxCell id="NuvUmpWHhTy3l0ar6KKT-13" value="" style="rounded=0;whiteSpace=wrap;html=1;" parent="1" vertex="1">
          <mxGeometry x="160" y="450" width="590" height="190" as="geometry" />
        </mxCell>
        <mxCell id="NuvUmpWHhTy3l0ar6KKT-15" value="" style="rounded=0;whiteSpace=wrap;html=1;fillColor=#d5e8d4;strokeColor=#82b366;" parent="1" vertex="1">
          <mxGeometry x="175" y="465" width="120" height="145" as="geometry" />
        </mxCell>
        <mxCell id="NuvUmpWHhTy3l0ar6KKT-16" value="参数映射配置" style="rounded=0;whiteSpace=wrap;html=1;" parent="1" vertex="1">
          <mxGeometry x="185" y="500" width="100" height="30" as="geometry" />
        </mxCell>
        <mxCell id="NuvUmpWHhTy3l0ar6KKT-17" value="参数映射解析" style="rounded=0;whiteSpace=wrap;html=1;" parent="1" vertex="1">
          <mxGeometry x="185" y="530" width="100" height="30" as="geometry" />
        </mxCell>
        <mxCell id="NuvUmpWHhTy3l0ar6KKT-18" value="参数类型解析" style="rounded=0;whiteSpace=wrap;html=1;" parent="1" vertex="1">
          <mxGeometry x="185" y="560" width="100" height="30" as="geometry" />
        </mxCell>
        <mxCell id="NuvUmpWHhTy3l0ar6KKT-19" value="参数映射" style="text;html=1;strokeColor=none;fillColor=none;align=center;verticalAlign=middle;whiteSpace=wrap;rounded=0;" parent="1" vertex="1">
          <mxGeometry x="205" y="470" width="60" height="30" as="geometry" />
        </mxCell>
        <mxCell id="NuvUmpWHhTy3l0ar6KKT-20" value="ParameterHandler" style="text;html=1;strokeColor=none;fillColor=none;align=center;verticalAlign=middle;whiteSpace=wrap;rounded=0;" parent="1" vertex="1">
          <mxGeometry x="200" y="610" width="60" height="30" as="geometry" />
        </mxCell>
        <mxCell id="NuvUmpWHhTy3l0ar6KKT-21" value="" style="rounded=0;whiteSpace=wrap;html=1;fillColor=#d5e8d4;strokeColor=#82b366;" parent="1" vertex="1">
          <mxGeometry x="320" y="465" width="120" height="145" as="geometry" />
        </mxCell>
        <mxCell id="NuvUmpWHhTy3l0ar6KKT-22" value="sql语句配置" style="rounded=0;whiteSpace=wrap;html=1;" parent="1" vertex="1">
          <mxGeometry x="330" y="500" width="100" height="30" as="geometry" />
        </mxCell>
        <mxCell id="NuvUmpWHhTy3l0ar6KKT-23" value="sql语句解析" style="rounded=0;whiteSpace=wrap;html=1;" parent="1" vertex="1">
          <mxGeometry x="330" y="530" width="100" height="30" as="geometry" />
        </mxCell>
        <mxCell id="NuvUmpWHhTy3l0ar6KKT-24" value="SQL语句动态生成" style="rounded=0;whiteSpace=wrap;html=1;" parent="1" vertex="1">
          <mxGeometry x="330" y="560" width="100" height="30" as="geometry" />
        </mxCell>
        <mxCell id="NuvUmpWHhTy3l0ar6KKT-25" value="SQL解析" style="text;html=1;strokeColor=none;fillColor=none;align=center;verticalAlign=middle;whiteSpace=wrap;rounded=0;" parent="1" vertex="1">
          <mxGeometry x="350" y="470" width="60" height="30" as="geometry" />
        </mxCell>
        <mxCell id="NuvUmpWHhTy3l0ar6KKT-26" value="" style="rounded=0;whiteSpace=wrap;html=1;fillColor=#d5e8d4;strokeColor=#82b366;" parent="1" vertex="1">
          <mxGeometry x="470" y="465" width="120" height="145" as="geometry" />
        </mxCell>
        <mxCell id="NuvUmpWHhTy3l0ar6KKT-27" value="SimpleExecutor" style="rounded=0;whiteSpace=wrap;html=1;" parent="1" vertex="1">
          <mxGeometry x="480" y="500" width="100" height="30" as="geometry" />
        </mxCell>
        <mxCell id="NuvUmpWHhTy3l0ar6KKT-28" value="BatchExecutor" style="rounded=0;whiteSpace=wrap;html=1;" parent="1" vertex="1">
          <mxGeometry x="480" y="530" width="100" height="30" as="geometry" />
        </mxCell>
        <mxCell id="NuvUmpWHhTy3l0ar6KKT-29" value="ReuseExcutor" style="rounded=0;whiteSpace=wrap;html=1;" parent="1" vertex="1">
          <mxGeometry x="480" y="560" width="100" height="30" as="geometry" />
        </mxCell>
        <mxCell id="NuvUmpWHhTy3l0ar6KKT-30" value="sql执行" style="text;html=1;strokeColor=none;fillColor=none;align=center;verticalAlign=middle;whiteSpace=wrap;rounded=0;" parent="1" vertex="1">
          <mxGeometry x="500" y="470" width="60" height="30" as="geometry" />
        </mxCell>
        <mxCell id="NuvUmpWHhTy3l0ar6KKT-31" value="" style="rounded=0;whiteSpace=wrap;html=1;fillColor=#d5e8d4;strokeColor=#82b366;" parent="1" vertex="1">
          <mxGeometry x="615" y="465" width="120" height="145" as="geometry" />
        </mxCell>
        <mxCell id="NuvUmpWHhTy3l0ar6KKT-32" value="结果映射配置" style="rounded=0;whiteSpace=wrap;html=1;" parent="1" vertex="1">
          <mxGeometry x="625" y="500" width="100" height="30" as="geometry" />
        </mxCell>
        <mxCell id="NuvUmpWHhTy3l0ar6KKT-33" value="结果类型转换" style="rounded=0;whiteSpace=wrap;html=1;" parent="1" vertex="1">
          <mxGeometry x="625" y="530" width="100" height="30" as="geometry" />
        </mxCell>
        <mxCell id="NuvUmpWHhTy3l0ar6KKT-34" value="结果类型转换" style="rounded=0;whiteSpace=wrap;html=1;" parent="1" vertex="1">
          <mxGeometry x="625" y="560" width="100" height="30" as="geometry" />
        </mxCell>
        <mxCell id="NuvUmpWHhTy3l0ar6KKT-35" value="结果处理和映射" style="text;html=1;strokeColor=none;fillColor=none;align=center;verticalAlign=middle;whiteSpace=wrap;rounded=0;" parent="1" vertex="1">
          <mxGeometry x="630" y="470" width="90" height="30" as="geometry" />
        </mxCell>
        <mxCell id="NuvUmpWHhTy3l0ar6KKT-38" value="SqlSource" style="text;html=1;strokeColor=none;fillColor=none;align=center;verticalAlign=middle;whiteSpace=wrap;rounded=0;" parent="1" vertex="1">
          <mxGeometry x="354" y="610" width="60" height="30" as="geometry" />
        </mxCell>
        <mxCell id="NuvUmpWHhTy3l0ar6KKT-39" value="Executor" style="text;html=1;strokeColor=none;fillColor=none;align=center;verticalAlign=middle;whiteSpace=wrap;rounded=0;" parent="1" vertex="1">
          <mxGeometry x="500" y="610" width="60" height="30" as="geometry" />
        </mxCell>
        <mxCell id="NuvUmpWHhTy3l0ar6KKT-40" value="ResultSetHandler" style="text;html=1;strokeColor=none;fillColor=none;align=center;verticalAlign=middle;whiteSpace=wrap;rounded=0;" parent="1" vertex="1">
          <mxGeometry x="640" y="610" width="60" height="30" as="geometry" />
        </mxCell>
        <mxCell id="NuvUmpWHhTy3l0ar6KKT-41" value="框架支撑层" style="rounded=0;whiteSpace=wrap;html=1;fillColor=#dae8fc;strokeColor=#6c8ebf;" parent="1" vertex="1">
          <mxGeometry x="90" y="640" width="70" height="190" as="geometry" />
        </mxCell>
        <mxCell id="NuvUmpWHhTy3l0ar6KKT-42" value="" style="rounded=0;whiteSpace=wrap;html=1;" parent="1" vertex="1">
          <mxGeometry x="160" y="640" width="590" height="190" as="geometry" />
        </mxCell>
        <mxCell id="NuvUmpWHhTy3l0ar6KKT-43" value="sql语句配置方式" style="rounded=0;whiteSpace=wrap;html=1;fillColor=#dae8fc;strokeColor=#6c8ebf;" parent="1" vertex="1">
          <mxGeometry x="205" y="670" width="120" height="40" as="geometry" />
        </mxCell>
        <mxCell id="NuvUmpWHhTy3l0ar6KKT-44" value="" style="rounded=0;whiteSpace=wrap;html=1;" parent="1" vertex="1">
          <mxGeometry x="325" y="670" width="355" height="40" as="geometry" />
        </mxCell>
        <mxCell id="NuvUmpWHhTy3l0ar6KKT-45" value="基于XML配置" style="rounded=0;whiteSpace=wrap;html=1;fillColor=#f8cecc;strokeColor=#b85450;" parent="1" vertex="1">
          <mxGeometry x="340" y="680" width="120" height="20" as="geometry" />
        </mxCell>
        <mxCell id="NuvUmpWHhTy3l0ar6KKT-46" value="基于注解" style="rounded=0;whiteSpace=wrap;html=1;fillColor=#f8cecc;strokeColor=#b85450;" parent="1" vertex="1">
          <mxGeometry x="480" y="680" width="120" height="20" as="geometry" />
        </mxCell>
        <mxCell id="NuvUmpWHhTy3l0ar6KKT-47" value="事物管理" style="rounded=0;whiteSpace=wrap;html=1;fillColor=#f8cecc;strokeColor=#b85450;" parent="1" vertex="1">
          <mxGeometry x="205" y="740" width="120" height="60" as="geometry" />
        </mxCell>
        <mxCell id="NuvUmpWHhTy3l0ar6KKT-48" value="连接池管理" style="rounded=0;whiteSpace=wrap;html=1;fillColor=#f8cecc;strokeColor=#b85450;" parent="1" vertex="1">
          <mxGeometry x="370" y="740" width="120" height="60" as="geometry" />
        </mxCell>
        <mxCell id="NuvUmpWHhTy3l0ar6KKT-49" value="缓存机制" style="rounded=0;whiteSpace=wrap;html=1;fillColor=#f8cecc;strokeColor=#b85450;" parent="1" vertex="1">
          <mxGeometry x="530" y="740" width="120" height="60" as="geometry" />
        </mxCell>
        <mxCell id="NuvUmpWHhTy3l0ar6KKT-50" value="引导层" style="rounded=0;whiteSpace=wrap;html=1;fillColor=#dae8fc;strokeColor=#6c8ebf;" parent="1" vertex="1">
          <mxGeometry x="90" y="830" width="70" height="190" as="geometry" />
        </mxCell>
        <mxCell id="NuvUmpWHhTy3l0ar6KKT-51" value="" style="rounded=0;whiteSpace=wrap;html=1;" parent="1" vertex="1">
          <mxGeometry x="160" y="830" width="590" height="190" as="geometry" />
        </mxCell>
        <mxCell id="NuvUmpWHhTy3l0ar6KKT-52" value="基于XML配置方式" style="rounded=0;whiteSpace=wrap;html=1;fillColor=#f8cecc;strokeColor=#b85450;" parent="1" vertex="1">
          <mxGeometry x="240" y="890" width="120" height="60" as="geometry" />
        </mxCell>
        <mxCell id="NuvUmpWHhTy3l0ar6KKT-53" value="基于Java API方式" style="rounded=0;whiteSpace=wrap;html=1;fillColor=#f8cecc;strokeColor=#b85450;" parent="1" vertex="1">
          <mxGeometry x="460" y="890" width="120" height="60" as="geometry" />
        </mxCell>
      </root>
    </mxGraphModel>
  </diagram>
</mxfile>
